<svg width="366" height="60" viewBox="0 0 366 60" fill="none" xmlns="http://www.w3.org/2000/svg">
<path d="M0 20C0 8.9543 8.95431 0 20 0H346C357.046 0 366 8.95431 366 20V40C366 51.0457 357.046 60 346 60H20C8.95431 60 0 51.0457 0 40V20Z" fill="#222831"/>
<path d="M159.964 36V24.3636H167.805V26.392H162.425V29.1648H167.402V31.1932H162.425V33.9716H167.828V36H159.964ZM172.136 30.9545V36H169.716V27.2727H172.023V28.8125H172.125C172.318 28.3049 172.642 27.9034 173.097 27.608C173.551 27.3087 174.102 27.1591 174.75 27.1591C175.356 27.1591 175.884 27.2917 176.335 27.5568C176.786 27.822 177.136 28.2008 177.386 28.6932C177.636 29.1818 177.761 29.7652 177.761 30.4432V36H175.341V30.875C175.345 30.3409 175.208 29.9242 174.932 29.625C174.655 29.322 174.275 29.1705 173.79 29.1705C173.464 29.1705 173.176 29.2405 172.926 29.3807C172.68 29.5208 172.487 29.7254 172.347 29.9943C172.21 30.2595 172.14 30.5795 172.136 30.9545ZM184.311 27.2727V29.0909H179.055V27.2727H184.311ZM180.249 25.1818H182.669V33.3182C182.669 33.5417 182.703 33.7159 182.771 33.8409C182.839 33.9621 182.934 34.0473 183.055 34.0966C183.18 34.1458 183.324 34.1705 183.487 34.1705C183.601 34.1705 183.714 34.161 183.828 34.142C183.942 34.1193 184.029 34.1023 184.089 34.0909L184.47 35.892C184.349 35.9299 184.179 35.9735 183.959 36.0227C183.739 36.0758 183.472 36.108 183.158 36.1193C182.574 36.142 182.063 36.0644 181.624 35.8864C181.188 35.7083 180.849 35.4318 180.607 35.0568C180.364 34.6818 180.245 34.2083 180.249 33.6364V25.1818ZM185.888 36V27.2727H188.234V28.7955H188.325C188.484 28.2538 188.751 27.8447 189.126 27.5682C189.501 27.2879 189.933 27.1477 190.422 27.1477C190.543 27.1477 190.674 27.1553 190.814 27.1705C190.954 27.1856 191.077 27.2064 191.183 27.233V29.3807C191.07 29.3466 190.912 29.3163 190.712 29.2898C190.511 29.2633 190.327 29.25 190.161 29.25C189.804 29.25 189.486 29.3277 189.206 29.483C188.929 29.6345 188.71 29.8466 188.547 30.1193C188.388 30.392 188.308 30.7064 188.308 31.0625V36H185.888ZM194.673 36.1648C194.116 36.1648 193.62 36.0682 193.185 35.875C192.749 35.678 192.404 35.3883 192.151 35.0057C191.901 34.6193 191.776 34.1383 191.776 33.5625C191.776 33.0777 191.865 32.6705 192.043 32.3409C192.221 32.0114 192.463 31.7462 192.77 31.5455C193.077 31.3447 193.425 31.1932 193.815 31.0909C194.209 30.9886 194.622 30.9167 195.054 30.875C195.562 30.822 195.971 30.7727 196.281 30.7273C196.592 30.678 196.817 30.6061 196.957 30.5114C197.098 30.4167 197.168 30.2765 197.168 30.0909V30.0568C197.168 29.697 197.054 29.4186 196.827 29.2216C196.603 29.0246 196.285 28.9261 195.872 28.9261C195.437 28.9261 195.09 29.0227 194.832 29.2159C194.575 29.4053 194.404 29.6439 194.321 29.9318L192.082 29.75C192.196 29.2197 192.42 28.7614 192.753 28.375C193.086 27.9848 193.516 27.6856 194.043 27.4773C194.573 27.2652 195.187 27.1591 195.884 27.1591C196.368 27.1591 196.832 27.2159 197.276 27.3295C197.723 27.4432 198.118 27.6193 198.463 27.858C198.812 28.0966 199.086 28.4034 199.287 28.7784C199.488 29.1496 199.588 29.5947 199.588 30.1136V36H197.293V34.7898H197.224C197.084 35.0625 196.897 35.303 196.662 35.5114C196.427 35.7159 196.145 35.8769 195.815 35.9943C195.486 36.108 195.105 36.1648 194.673 36.1648ZM195.366 34.4943C195.723 34.4943 196.037 34.4242 196.31 34.2841C196.582 34.1402 196.796 33.947 196.952 33.7045C197.107 33.4621 197.185 33.1875 197.185 32.8807V31.9545C197.109 32.0038 197.005 32.0492 196.872 32.0909C196.743 32.1288 196.598 32.1648 196.435 32.1989C196.272 32.2292 196.109 32.2576 195.946 32.2841C195.783 32.3068 195.635 32.3277 195.503 32.3466C195.219 32.3883 194.971 32.4545 194.759 32.5455C194.546 32.6364 194.382 32.7595 194.264 32.9148C194.147 33.0663 194.088 33.2557 194.088 33.483C194.088 33.8125 194.207 34.0644 194.446 34.2386C194.688 34.4091 194.995 34.4943 195.366 34.4943ZM201.466 36V27.2727H203.812V28.7955H203.903C204.063 28.2538 204.33 27.8447 204.705 27.5682C205.08 27.2879 205.511 27.1477 206 27.1477C206.121 27.1477 206.252 27.1553 206.392 27.1705C206.532 27.1856 206.655 27.2064 206.761 27.233V29.3807C206.648 29.3466 206.491 29.3163 206.29 29.2898C206.089 29.2633 205.905 29.25 205.739 29.25C205.383 29.25 205.064 29.3277 204.784 29.483C204.508 29.6345 204.288 29.8466 204.125 30.1193C203.966 30.392 203.886 30.7064 203.886 31.0625V36H201.466Z" fill="white"/>
</svg>
