<svg width="177" height="60" viewBox="0 0 177 60" fill="none" xmlns="http://www.w3.org/2000/svg">
<path d="M0 20C0 8.9543 8.95431 0 20 0H157C168.046 0 177 8.95431 177 20V40C177 51.0457 168.046 60 157 60H20C8.95431 60 0 51.0457 0 40V20Z" fill="#222831"/>
<path d="M22.3622 24.3636V36H19.902V24.3636H22.3622ZM24.3409 36V27.2727H26.6875V28.7955H26.7784C26.9375 28.2538 27.2045 27.8447 27.5795 27.5682C27.9545 27.2879 28.3864 27.1477 28.875 27.1477C28.9962 27.1477 29.1269 27.1553 29.267 27.1705C29.4072 27.1856 29.5303 27.2064 29.6364 27.233V29.3807C29.5227 29.3466 29.3655 29.3163 29.1648 29.2898C28.964 29.2633 28.7803 29.25 28.6136 29.25C28.2576 29.25 27.9394 29.3277 27.6591 29.483C27.3826 29.6345 27.1629 29.8466 27 30.1193C26.8409 30.392 26.7614 30.7064 26.7614 31.0625V36H24.3409ZM34.6364 36V24.3636H39.2273C40.1098 24.3636 40.8617 24.5322 41.483 24.8693C42.1042 25.2027 42.5777 25.6667 42.9034 26.2614C43.233 26.8523 43.3977 27.5341 43.3977 28.3068C43.3977 29.0795 43.2311 29.7614 42.8977 30.3523C42.5644 30.9432 42.0814 31.4034 41.4489 31.733C40.8201 32.0625 40.0587 32.2273 39.1648 32.2273H36.2386V30.2557H38.767C39.2405 30.2557 39.6307 30.1742 39.9375 30.0114C40.2481 29.8447 40.4792 29.6155 40.6307 29.3239C40.786 29.0284 40.8636 28.6894 40.8636 28.3068C40.8636 27.9205 40.786 27.5833 40.6307 27.2955C40.4792 27.0038 40.2481 26.7784 39.9375 26.6193C39.6269 26.4564 39.233 26.375 38.7557 26.375H37.0966V36H34.6364ZM47.2045 36.1648C46.6477 36.1648 46.1515 36.0682 45.7159 35.875C45.2803 35.678 44.9356 35.3883 44.6818 35.0057C44.4318 34.6193 44.3068 34.1383 44.3068 33.5625C44.3068 33.0777 44.3958 32.6705 44.5739 32.3409C44.7519 32.0114 44.9943 31.7462 45.3011 31.5455C45.608 31.3447 45.9564 31.1932 46.3466 31.0909C46.7405 30.9886 47.1534 30.9167 47.5852 30.875C48.0928 30.822 48.5019 30.7727 48.8125 30.7273C49.1231 30.678 49.3485 30.6061 49.4886 30.5114C49.6288 30.4167 49.6989 30.2765 49.6989 30.0909V30.0568C49.6989 29.697 49.5852 29.4186 49.358 29.2216C49.1345 29.0246 48.8163 28.9261 48.4034 28.9261C47.9678 28.9261 47.6212 29.0227 47.3636 29.2159C47.1061 29.4053 46.9356 29.6439 46.8523 29.9318L44.6136 29.75C44.7273 29.2197 44.9508 28.7614 45.2841 28.375C45.6174 27.9848 46.0473 27.6856 46.5739 27.4773C47.1042 27.2652 47.7178 27.1591 48.4148 27.1591C48.8996 27.1591 49.3636 27.2159 49.8068 27.3295C50.2538 27.4432 50.6496 27.6193 50.9943 27.858C51.3428 28.0966 51.6174 28.4034 51.8182 28.7784C52.0189 29.1496 52.1193 29.5947 52.1193 30.1136V36H49.8239V34.7898H49.7557C49.6155 35.0625 49.428 35.303 49.1932 35.5114C48.9583 35.7159 48.6761 35.8769 48.3466 35.9943C48.017 36.108 47.6364 36.1648 47.2045 36.1648ZM47.8977 34.4943C48.2538 34.4943 48.5682 34.4242 48.8409 34.2841C49.1136 34.1402 49.3277 33.947 49.483 33.7045C49.6383 33.4621 49.7159 33.1875 49.7159 32.8807V31.9545C49.6402 32.0038 49.536 32.0492 49.4034 32.0909C49.2746 32.1288 49.1288 32.1648 48.9659 32.1989C48.803 32.2292 48.6402 32.2576 48.4773 32.2841C48.3144 32.3068 48.1667 32.3277 48.0341 32.3466C47.75 32.3883 47.5019 32.4545 47.2898 32.5455C47.0777 32.6364 46.9129 32.7595 46.7955 32.9148C46.678 33.0663 46.6193 33.2557 46.6193 33.483C46.6193 33.8125 46.7386 34.0644 46.9773 34.2386C47.2197 34.4091 47.5265 34.4943 47.8977 34.4943ZM53.9972 36V27.2727H56.3438V28.7955H56.4347C56.5938 28.2538 56.8608 27.8447 57.2358 27.5682C57.6108 27.2879 58.0426 27.1477 58.5312 27.1477C58.6525 27.1477 58.7831 27.1553 58.9233 27.1705C59.0634 27.1856 59.1866 27.2064 59.2926 27.233V29.3807C59.179 29.3466 59.0218 29.3163 58.821 29.2898C58.6203 29.2633 58.4366 29.25 58.2699 29.25C57.9138 29.25 57.5956 29.3277 57.3153 29.483C57.0388 29.6345 56.8191 29.8466 56.6562 30.1193C56.4972 30.392 56.4176 30.7064 56.4176 31.0625V36H53.9972ZM62.7827 36.1648C62.2259 36.1648 61.7296 36.0682 61.294 35.875C60.8584 35.678 60.5137 35.3883 60.2599 35.0057C60.0099 34.6193 59.8849 34.1383 59.8849 33.5625C59.8849 33.0777 59.974 32.6705 60.152 32.3409C60.33 32.0114 60.5724 31.7462 60.8793 31.5455C61.1861 31.3447 61.5346 31.1932 61.9247 31.0909C62.3187 30.9886 62.7315 30.9167 63.1634 30.875C63.6709 30.822 64.08 30.7727 64.3906 30.7273C64.7012 30.678 64.9266 30.6061 65.0668 30.5114C65.2069 30.4167 65.277 30.2765 65.277 30.0909V30.0568C65.277 29.697 65.1634 29.4186 64.9361 29.2216C64.7126 29.0246 64.3944 28.9261 63.9815 28.9261C63.5459 28.9261 63.1993 29.0227 62.9418 29.2159C62.6842 29.4053 62.5137 29.6439 62.4304 29.9318L60.1918 29.75C60.3054 29.2197 60.5289 28.7614 60.8622 28.375C61.1955 27.9848 61.6255 27.6856 62.152 27.4773C62.6823 27.2652 63.2959 27.1591 63.9929 27.1591C64.4777 27.1591 64.9418 27.2159 65.3849 27.3295C65.8319 27.4432 66.2277 27.6193 66.5724 27.858C66.9209 28.0966 67.1955 28.4034 67.3963 28.7784C67.5971 29.1496 67.6974 29.5947 67.6974 30.1136V36H65.402V34.7898H65.3338C65.1937 35.0625 65.0062 35.303 64.7713 35.5114C64.5365 35.7159 64.2543 35.8769 63.9247 35.9943C63.5952 36.108 63.2145 36.1648 62.7827 36.1648ZM63.4759 34.4943C63.8319 34.4943 64.1463 34.4242 64.419 34.2841C64.6918 34.1402 64.9058 33.947 65.0611 33.7045C65.2164 33.4621 65.294 33.1875 65.294 32.8807V31.9545C65.2183 32.0038 65.1141 32.0492 64.9815 32.0909C64.8527 32.1288 64.7069 32.1648 64.544 32.1989C64.3812 32.2292 64.2183 32.2576 64.0554 32.2841C63.8925 32.3068 63.7448 32.3277 63.6122 32.3466C63.3281 32.3883 63.08 32.4545 62.8679 32.5455C62.6558 32.6364 62.491 32.7595 62.3736 32.9148C62.2562 33.0663 62.1974 33.2557 62.1974 33.483C62.1974 33.8125 62.3168 34.0644 62.5554 34.2386C62.7978 34.4091 63.1046 34.4943 63.4759 34.4943ZM77.4489 36H73.3239V24.3636H77.483C78.6534 24.3636 79.661 24.5966 80.5057 25.0625C81.3504 25.5246 82 26.1894 82.4545 27.0568C82.9129 27.9242 83.142 28.9621 83.142 30.1705C83.142 31.3826 82.9129 32.4242 82.4545 33.2955C82 34.1667 81.3466 34.8352 80.4943 35.3011C79.6458 35.767 78.6307 36 77.4489 36ZM75.7841 33.892H77.3466C78.0739 33.892 78.6856 33.7633 79.1818 33.5057C79.6818 33.2443 80.0568 32.8409 80.3068 32.2955C80.5606 31.7462 80.6875 31.0379 80.6875 30.1705C80.6875 29.3106 80.5606 28.608 80.3068 28.0625C80.0568 27.517 79.6837 27.1155 79.1875 26.858C78.6913 26.6004 78.0795 26.4716 77.3523 26.4716H75.7841V33.892ZM84.919 36V27.2727H87.3395V36H84.919ZM86.1349 26.1477C85.7751 26.1477 85.4664 26.0284 85.2088 25.7898C84.955 25.5473 84.8281 25.2576 84.8281 24.9205C84.8281 24.5871 84.955 24.3011 85.2088 24.0625C85.4664 23.8201 85.7751 23.6989 86.1349 23.6989C86.4948 23.6989 86.8016 23.8201 87.0554 24.0625C87.313 24.3011 87.4418 24.5871 87.4418 24.9205C87.4418 25.2576 87.313 25.5473 87.0554 25.7898C86.8016 26.0284 86.4948 26.1477 86.1349 26.1477ZM96.5398 29.7614L94.3239 29.8977C94.286 29.7083 94.2045 29.5379 94.0795 29.3864C93.9545 29.2311 93.7898 29.108 93.5852 29.017C93.3845 28.9223 93.1439 28.875 92.8636 28.875C92.4886 28.875 92.1723 28.9545 91.9148 29.1136C91.6572 29.2689 91.5284 29.4773 91.5284 29.7386C91.5284 29.947 91.6117 30.1231 91.7784 30.267C91.9451 30.411 92.2311 30.5265 92.6364 30.6136L94.2159 30.9318C95.0644 31.1061 95.697 31.3864 96.1136 31.7727C96.5303 32.1591 96.7386 32.6667 96.7386 33.2955C96.7386 33.8674 96.5701 34.3693 96.233 34.8011C95.8996 35.233 95.4413 35.5701 94.858 35.8125C94.2784 36.0511 93.6098 36.1705 92.8523 36.1705C91.697 36.1705 90.7765 35.9299 90.0909 35.4489C89.4091 34.964 89.0095 34.3049 88.892 33.4716L91.2727 33.3466C91.3447 33.6989 91.5189 33.9678 91.7955 34.1534C92.072 34.3352 92.4261 34.4261 92.858 34.4261C93.2822 34.4261 93.6231 34.3447 93.8807 34.1818C94.142 34.0152 94.2746 33.8011 94.2784 33.5398C94.2746 33.3201 94.1818 33.1402 94 33C93.8182 32.8561 93.5379 32.7462 93.1591 32.6705L91.6477 32.3693C90.7955 32.1989 90.161 31.9034 89.7443 31.483C89.3314 31.0625 89.125 30.5265 89.125 29.875C89.125 29.3144 89.2765 28.8314 89.5795 28.4261C89.8864 28.0208 90.3163 27.7083 90.8693 27.4886C91.4261 27.2689 92.0777 27.1591 92.8239 27.1591C93.9261 27.1591 94.7936 27.392 95.4261 27.858C96.0625 28.3239 96.4337 28.9583 96.5398 29.7614ZM102.206 36.1705C101.312 36.1705 100.543 35.9811 99.8991 35.6023C99.259 35.2197 98.7666 34.6894 98.4219 34.0114C98.081 33.3333 97.9105 32.553 97.9105 31.6705C97.9105 30.7765 98.0829 29.9924 98.4276 29.3182C98.776 28.6402 99.2704 28.1117 99.9105 27.733C100.551 27.3504 101.312 27.1591 102.195 27.1591C102.956 27.1591 103.623 27.2973 104.195 27.5739C104.767 27.8504 105.219 28.2386 105.553 28.7386C105.886 29.2386 106.07 29.8258 106.104 30.5H103.82C103.755 30.0644 103.585 29.714 103.308 29.4489C103.036 29.1799 102.678 29.0455 102.234 29.0455C101.859 29.0455 101.532 29.1477 101.251 29.3523C100.975 29.553 100.759 29.8466 100.604 30.233C100.448 30.6193 100.371 31.0871 100.371 31.6364C100.371 32.1932 100.446 32.6667 100.598 33.0568C100.753 33.447 100.971 33.7443 101.251 33.9489C101.532 34.1534 101.859 34.2557 102.234 34.2557C102.511 34.2557 102.759 34.1989 102.979 34.0852C103.202 33.9716 103.386 33.8068 103.53 33.5909C103.678 33.3712 103.774 33.108 103.82 32.8011H106.104C106.066 33.4678 105.884 34.0549 105.558 34.5625C105.236 35.0663 104.791 35.4602 104.223 35.7443C103.655 36.0284 102.982 36.1705 102.206 36.1705ZM107.653 36V27.2727H110.074V36H107.653ZM108.869 26.1477C108.509 26.1477 108.201 26.0284 107.943 25.7898C107.689 25.5473 107.562 25.2576 107.562 24.9205C107.562 24.5871 107.689 24.3011 107.943 24.0625C108.201 23.8201 108.509 23.6989 108.869 23.6989C109.229 23.6989 109.536 23.8201 109.79 24.0625C110.047 24.3011 110.176 24.5871 110.176 24.9205C110.176 25.2576 110.047 25.5473 109.79 25.7898C109.536 26.0284 109.229 26.1477 108.869 26.1477ZM112.013 39.2727V27.2727H114.399V28.7386H114.507C114.613 28.5038 114.767 28.2652 114.967 28.0227C115.172 27.7765 115.437 27.572 115.763 27.4091C116.092 27.2424 116.501 27.1591 116.99 27.1591C117.626 27.1591 118.214 27.3258 118.751 27.6591C119.289 27.9886 119.719 28.4867 120.041 29.1534C120.363 29.8163 120.524 30.6477 120.524 31.6477C120.524 32.6212 120.367 33.4432 120.053 34.1136C119.742 34.7803 119.318 35.286 118.78 35.6307C118.246 35.9716 117.647 36.142 116.984 36.142C116.515 36.142 116.115 36.0644 115.786 35.9091C115.46 35.7538 115.193 35.5587 114.984 35.3239C114.776 35.0852 114.617 34.8447 114.507 34.6023H114.433V39.2727H112.013ZM114.382 31.6364C114.382 32.1553 114.454 32.608 114.598 32.9943C114.742 33.3807 114.95 33.6818 115.223 33.8977C115.496 34.1098 115.827 34.2159 116.217 34.2159C116.611 34.2159 116.945 34.108 117.217 33.892C117.49 33.6723 117.696 33.3693 117.837 32.983C117.981 32.5928 118.053 32.1439 118.053 31.6364C118.053 31.1326 117.982 30.6894 117.842 30.3068C117.702 29.9242 117.496 29.625 117.223 29.4091C116.95 29.1932 116.615 29.0852 116.217 29.0852C115.823 29.0852 115.49 29.1894 115.217 29.3977C114.948 29.6061 114.742 29.9015 114.598 30.2841C114.454 30.6667 114.382 31.1174 114.382 31.6364ZM124.558 24.3636V36H122.138V24.3636H124.558ZM126.497 36V27.2727H128.918V36H126.497ZM127.713 26.1477C127.353 26.1477 127.045 26.0284 126.787 25.7898C126.533 25.5473 126.406 25.2576 126.406 24.9205C126.406 24.5871 126.533 24.3011 126.787 24.0625C127.045 23.8201 127.353 23.6989 127.713 23.6989C128.073 23.6989 128.38 23.8201 128.634 24.0625C128.891 24.3011 129.02 24.5871 129.02 24.9205C129.02 25.2576 128.891 25.5473 128.634 25.7898C128.38 26.0284 128.073 26.1477 127.713 26.1477ZM133.277 30.9545V36H130.857V27.2727H133.163V28.8125H133.266C133.459 28.3049 133.783 27.9034 134.237 27.608C134.692 27.3087 135.243 27.1591 135.891 27.1591C136.497 27.1591 137.025 27.2917 137.476 27.5568C137.927 27.822 138.277 28.2008 138.527 28.6932C138.777 29.1818 138.902 29.7652 138.902 30.4432V36H136.482V30.875C136.485 30.3409 136.349 29.9242 136.072 29.625C135.796 29.322 135.415 29.1705 134.93 29.1705C134.605 29.1705 134.317 29.2405 134.067 29.3807C133.821 29.5208 133.627 29.7254 133.487 29.9943C133.351 30.2595 133.281 30.5795 133.277 30.9545ZM143.298 36.1648C142.741 36.1648 142.245 36.0682 141.81 35.875C141.374 35.678 141.029 35.3883 140.776 35.0057C140.526 34.6193 140.401 34.1383 140.401 33.5625C140.401 33.0777 140.49 32.6705 140.668 32.3409C140.846 32.0114 141.088 31.7462 141.395 31.5455C141.702 31.3447 142.05 31.1932 142.44 31.0909C142.834 30.9886 143.247 30.9167 143.679 30.875C144.187 30.822 144.596 30.7727 144.906 30.7273C145.217 30.678 145.442 30.6061 145.582 30.5114C145.723 30.4167 145.793 30.2765 145.793 30.0909V30.0568C145.793 29.697 145.679 29.4186 145.452 29.2216C145.228 29.0246 144.91 28.9261 144.497 28.9261C144.062 28.9261 143.715 29.0227 143.457 29.2159C143.2 29.4053 143.029 29.6439 142.946 29.9318L140.707 29.75C140.821 29.2197 141.045 28.7614 141.378 28.375C141.711 27.9848 142.141 27.6856 142.668 27.4773C143.198 27.2652 143.812 27.1591 144.509 27.1591C144.993 27.1591 145.457 27.2159 145.901 27.3295C146.348 27.4432 146.743 27.6193 147.088 27.858C147.437 28.0966 147.711 28.4034 147.912 28.7784C148.113 29.1496 148.213 29.5947 148.213 30.1136V36H145.918V34.7898H145.849C145.709 35.0625 145.522 35.303 145.287 35.5114C145.052 35.7159 144.77 35.8769 144.44 35.9943C144.111 36.108 143.73 36.1648 143.298 36.1648ZM143.991 34.4943C144.348 34.4943 144.662 34.4242 144.935 34.2841C145.207 34.1402 145.421 33.947 145.577 33.7045C145.732 33.4621 145.81 33.1875 145.81 32.8807V31.9545C145.734 32.0038 145.63 32.0492 145.497 32.0909C145.368 32.1288 145.223 32.1648 145.06 32.1989C144.897 32.2292 144.734 32.2576 144.571 32.2841C144.408 32.3068 144.26 32.3277 144.128 32.3466C143.844 32.3883 143.596 32.4545 143.384 32.5455C143.171 32.6364 143.007 32.7595 142.889 32.9148C142.772 33.0663 142.713 33.2557 142.713 33.483C142.713 33.8125 142.832 34.0644 143.071 34.2386C143.313 34.4091 143.62 34.4943 143.991 34.4943ZM157.352 29.7614L155.136 29.8977C155.098 29.7083 155.017 29.5379 154.892 29.3864C154.767 29.2311 154.602 29.108 154.398 29.017C154.197 28.9223 153.956 28.875 153.676 28.875C153.301 28.875 152.985 28.9545 152.727 29.1136C152.47 29.2689 152.341 29.4773 152.341 29.7386C152.341 29.947 152.424 30.1231 152.591 30.267C152.758 30.411 153.044 30.5265 153.449 30.6136L155.028 30.9318C155.877 31.1061 156.509 31.3864 156.926 31.7727C157.343 32.1591 157.551 32.6667 157.551 33.2955C157.551 33.8674 157.383 34.3693 157.045 34.8011C156.712 35.233 156.254 35.5701 155.67 35.8125C155.091 36.0511 154.422 36.1705 153.665 36.1705C152.509 36.1705 151.589 35.9299 150.903 35.4489C150.222 34.964 149.822 34.3049 149.705 33.4716L152.085 33.3466C152.157 33.6989 152.331 33.9678 152.608 34.1534C152.884 34.3352 153.239 34.4261 153.67 34.4261C154.095 34.4261 154.436 34.3447 154.693 34.1818C154.955 34.0152 155.087 33.8011 155.091 33.5398C155.087 33.3201 154.994 33.1402 154.812 33C154.631 32.8561 154.35 32.7462 153.972 32.6705L152.46 32.3693C151.608 32.1989 150.973 31.9034 150.557 31.483C150.144 31.0625 149.938 30.5265 149.938 29.875C149.938 29.3144 150.089 28.8314 150.392 28.4261C150.699 28.0208 151.129 27.7083 151.682 27.4886C152.239 27.2689 152.89 27.1591 153.636 27.1591C154.739 27.1591 155.606 27.392 156.239 27.858C156.875 28.3239 157.246 28.9583 157.352 29.7614Z" fill="white"/>
</svg>
