<svg width="177" height="60" viewBox="0 0 177 60" fill="none" xmlns="http://www.w3.org/2000/svg">
<path d="M0 20C0 8.9543 8.95431 0 20 0H157C168.046 0 177 8.95431 177 20V40C177 51.0457 168.046 60 157 60H20C8.95431 60 0 51.0457 0 40V20Z" fill="#222831"/>
<path d="M33.5895 27.7102C33.544 27.2519 33.349 26.8958 33.0043 26.642C32.6596 26.3883 32.1918 26.2614 31.6009 26.2614C31.1993 26.2614 30.8603 26.3182 30.5838 26.4318C30.3073 26.5417 30.0952 26.6951 29.9474 26.892C29.8035 27.089 29.7315 27.3125 29.7315 27.5625C29.724 27.7708 29.7675 27.9527 29.8622 28.108C29.9607 28.2633 30.0952 28.3977 30.2656 28.5114C30.4361 28.6212 30.633 28.7178 30.8565 28.8011C31.08 28.8807 31.3187 28.9489 31.5724 29.0057L32.6179 29.2557C33.1255 29.3693 33.5914 29.5208 34.0156 29.7102C34.4399 29.8996 34.8073 30.1326 35.1179 30.4091C35.4285 30.6856 35.669 31.0114 35.8395 31.3864C36.0137 31.7614 36.1027 32.1913 36.1065 32.6761C36.1027 33.3883 35.9209 34.0057 35.5611 34.5284C35.205 35.0473 34.6899 35.4508 34.0156 35.7386C33.3452 36.0227 32.5365 36.1648 31.5895 36.1648C30.6501 36.1648 29.8319 36.0208 29.1349 35.733C28.4418 35.4451 27.9001 35.0189 27.5099 34.4545C27.1236 33.8864 26.9209 33.1837 26.902 32.3466H29.2827C29.3092 32.7367 29.4209 33.0625 29.6179 33.3239C29.8187 33.5814 30.0857 33.7765 30.419 33.9091C30.7562 34.0379 31.1368 34.1023 31.5611 34.1023C31.9777 34.1023 32.3395 34.0417 32.6463 33.9205C32.9569 33.7992 33.1974 33.6307 33.3679 33.4148C33.5384 33.1989 33.6236 32.9508 33.6236 32.6705C33.6236 32.4091 33.5459 32.1894 33.3906 32.0114C33.2391 31.8333 33.0156 31.6818 32.7202 31.5568C32.4285 31.4318 32.0705 31.3182 31.6463 31.2159L30.3793 30.8977C29.3982 30.6591 28.6236 30.286 28.0554 29.7784C27.4872 29.2708 27.205 28.5871 27.2088 27.7273C27.205 27.0227 27.3925 26.4072 27.7713 25.8807C28.1539 25.3542 28.6785 24.9432 29.3452 24.6477C30.0118 24.3523 30.7694 24.2045 31.6179 24.2045C32.4815 24.2045 33.2353 24.3523 33.8793 24.6477C34.527 24.9432 35.0308 25.3542 35.3906 25.8807C35.7505 26.4072 35.9361 27.017 35.9474 27.7102H33.5895ZM40.2045 36.1648C39.6477 36.1648 39.1515 36.0682 38.7159 35.875C38.2803 35.678 37.9356 35.3883 37.6818 35.0057C37.4318 34.6193 37.3068 34.1383 37.3068 33.5625C37.3068 33.0777 37.3958 32.6705 37.5739 32.3409C37.7519 32.0114 37.9943 31.7462 38.3011 31.5455C38.608 31.3447 38.9564 31.1932 39.3466 31.0909C39.7405 30.9886 40.1534 30.9167 40.5852 30.875C41.0928 30.822 41.5019 30.7727 41.8125 30.7273C42.1231 30.678 42.3485 30.6061 42.4886 30.5114C42.6288 30.4167 42.6989 30.2765 42.6989 30.0909V30.0568C42.6989 29.697 42.5852 29.4186 42.358 29.2216C42.1345 29.0246 41.8163 28.9261 41.4034 28.9261C40.9678 28.9261 40.6212 29.0227 40.3636 29.2159C40.1061 29.4053 39.9356 29.6439 39.8523 29.9318L37.6136 29.75C37.7273 29.2197 37.9508 28.7614 38.2841 28.375C38.6174 27.9848 39.0473 27.6856 39.5739 27.4773C40.1042 27.2652 40.7178 27.1591 41.4148 27.1591C41.8996 27.1591 42.3636 27.2159 42.8068 27.3295C43.2538 27.4432 43.6496 27.6193 43.9943 27.858C44.3428 28.0966 44.6174 28.4034 44.8182 28.7784C45.0189 29.1496 45.1193 29.5947 45.1193 30.1136V36H42.8239V34.7898H42.7557C42.6155 35.0625 42.428 35.303 42.1932 35.5114C41.9583 35.7159 41.6761 35.8769 41.3466 35.9943C41.017 36.108 40.6364 36.1648 40.2045 36.1648ZM40.8977 34.4943C41.2538 34.4943 41.5682 34.4242 41.8409 34.2841C42.1136 34.1402 42.3277 33.947 42.483 33.7045C42.6383 33.4621 42.7159 33.1875 42.7159 32.8807V31.9545C42.6402 32.0038 42.536 32.0492 42.4034 32.0909C42.2746 32.1288 42.1288 32.1648 41.9659 32.1989C41.803 32.2292 41.6402 32.2576 41.4773 32.2841C41.3144 32.3068 41.1667 32.3277 41.0341 32.3466C40.75 32.3883 40.5019 32.4545 40.2898 32.5455C40.0777 32.6364 39.9129 32.7595 39.7955 32.9148C39.678 33.0663 39.6193 33.2557 39.6193 33.483C39.6193 33.8125 39.7386 34.0644 39.9773 34.2386C40.2197 34.4091 40.5265 34.4943 40.8977 34.4943ZM49.4176 24.3636V36H46.9972V24.3636H49.4176ZM53.8452 36.1648C53.2884 36.1648 52.7921 36.0682 52.3565 35.875C51.9209 35.678 51.5762 35.3883 51.3224 35.0057C51.0724 34.6193 50.9474 34.1383 50.9474 33.5625C50.9474 33.0777 51.0365 32.6705 51.2145 32.3409C51.3925 32.0114 51.6349 31.7462 51.9418 31.5455C52.2486 31.3447 52.5971 31.1932 52.9872 31.0909C53.3812 30.9886 53.794 30.9167 54.2259 30.875C54.7334 30.822 55.1425 30.7727 55.4531 30.7273C55.7637 30.678 55.9891 30.6061 56.1293 30.5114C56.2694 30.4167 56.3395 30.2765 56.3395 30.0909V30.0568C56.3395 29.697 56.2259 29.4186 55.9986 29.2216C55.7751 29.0246 55.4569 28.9261 55.044 28.9261C54.6084 28.9261 54.2618 29.0227 54.0043 29.2159C53.7467 29.4053 53.5762 29.6439 53.4929 29.9318L51.2543 29.75C51.3679 29.2197 51.5914 28.7614 51.9247 28.375C52.258 27.9848 52.688 27.6856 53.2145 27.4773C53.7448 27.2652 54.3584 27.1591 55.0554 27.1591C55.5402 27.1591 56.0043 27.2159 56.4474 27.3295C56.8944 27.4432 57.2902 27.6193 57.6349 27.858C57.9834 28.0966 58.258 28.4034 58.4588 28.7784C58.6596 29.1496 58.7599 29.5947 58.7599 30.1136V36H56.4645V34.7898H56.3963C56.2562 35.0625 56.0687 35.303 55.8338 35.5114C55.599 35.7159 55.3168 35.8769 54.9872 35.9943C54.6577 36.108 54.277 36.1648 53.8452 36.1648ZM54.5384 34.4943C54.8944 34.4943 55.2088 34.4242 55.4815 34.2841C55.7543 34.1402 55.9683 33.947 56.1236 33.7045C56.2789 33.4621 56.3565 33.1875 56.3565 32.8807V31.9545C56.2808 32.0038 56.1766 32.0492 56.044 32.0909C55.9152 32.1288 55.7694 32.1648 55.6065 32.1989C55.4437 32.2292 55.2808 32.2576 55.1179 32.2841C54.955 32.3068 54.8073 32.3277 54.6747 32.3466C54.3906 32.3883 54.1425 32.4545 53.9304 32.5455C53.7183 32.6364 53.5535 32.7595 53.4361 32.9148C53.3187 33.0663 53.2599 33.2557 53.2599 33.483C53.2599 33.8125 53.3793 34.0644 53.6179 34.2386C53.8603 34.4091 54.1671 34.4943 54.5384 34.4943ZM67.5568 36.142C66.8939 36.142 66.2936 35.9716 65.7557 35.6307C65.2216 35.286 64.7973 34.7803 64.483 34.1136C64.1723 33.4432 64.017 32.6212 64.017 31.6477C64.017 30.6477 64.178 29.8163 64.5 29.1534C64.822 28.4867 65.25 27.9886 65.7841 27.6591C66.322 27.3258 66.911 27.1591 67.5511 27.1591C68.0398 27.1591 68.447 27.2424 68.7727 27.4091C69.1023 27.572 69.3674 27.7765 69.5682 28.0227C69.7727 28.2652 69.928 28.5038 70.0341 28.7386H70.108V24.3636H72.5227V36H70.1364V34.6023H70.0341C69.9205 34.8447 69.7595 35.0852 69.5511 35.3239C69.3466 35.5587 69.0795 35.7538 68.75 35.9091C68.4242 36.0644 68.0265 36.142 67.5568 36.142ZM68.3239 34.2159C68.714 34.2159 69.0436 34.1098 69.3125 33.8977C69.5852 33.6818 69.7936 33.3807 69.9375 32.9943C70.0852 32.608 70.1591 32.1553 70.1591 31.6364C70.1591 31.1174 70.0871 30.6667 69.9432 30.2841C69.7992 29.9015 69.5909 29.6061 69.3182 29.3977C69.0455 29.1894 68.714 29.0852 68.3239 29.0852C67.9261 29.0852 67.5909 29.1932 67.3182 29.4091C67.0455 29.625 66.839 29.9242 66.6989 30.3068C66.5587 30.6894 66.4886 31.1326 66.4886 31.6364C66.4886 32.1439 66.5587 32.5928 66.6989 32.983C66.8428 33.3693 67.0492 33.6723 67.3182 33.892C67.5909 34.108 67.9261 34.2159 68.3239 34.2159ZM78.4901 36.1705C77.5923 36.1705 76.8196 35.9886 76.1719 35.625C75.5279 35.2576 75.0317 34.7386 74.6832 34.0682C74.3348 33.3939 74.1605 32.5966 74.1605 31.6761C74.1605 30.7784 74.3348 29.9905 74.6832 29.3125C75.0317 28.6345 75.5223 28.1061 76.1548 27.7273C76.7912 27.3485 77.5374 27.1591 78.3935 27.1591C78.9692 27.1591 79.5052 27.2519 80.0014 27.4375C80.5014 27.6193 80.937 27.8939 81.3082 28.2614C81.6832 28.6288 81.9749 29.0909 82.1832 29.6477C82.3916 30.2008 82.4957 30.8485 82.4957 31.5909V32.2557H75.1264V30.7557H80.2173C80.2173 30.4072 80.1416 30.0985 79.9901 29.8295C79.8385 29.5606 79.6283 29.3504 79.3594 29.1989C79.0942 29.0436 78.7855 28.9659 78.4332 28.9659C78.0658 28.9659 77.7401 29.0511 77.456 29.2216C77.1757 29.3883 76.956 29.6136 76.7969 29.8977C76.6378 30.178 76.5563 30.4905 76.5526 30.8352V32.2614C76.5526 32.6932 76.6321 33.0663 76.7912 33.3807C76.9541 33.6951 77.1832 33.9375 77.4787 34.108C77.7741 34.2784 78.1245 34.3636 78.5298 34.3636C78.7988 34.3636 79.045 34.3258 79.2685 34.25C79.492 34.1742 79.6832 34.0606 79.8423 33.9091C80.0014 33.7576 80.1226 33.572 80.206 33.3523L82.4446 33.5C82.331 34.0379 82.098 34.5076 81.7457 34.9091C81.3973 35.3068 80.9465 35.6174 80.3935 35.8409C79.8442 36.0606 79.2098 36.1705 78.4901 36.1705ZM87.8239 36V24.3636H95.6648V26.392H90.2841V29.1648H95.2614V31.1932H90.2841V33.9716H95.6875V36H87.8239ZM104.837 29.7614L102.621 29.8977C102.583 29.7083 102.501 29.5379 102.376 29.3864C102.251 29.2311 102.087 29.108 101.882 29.017C101.681 28.9223 101.441 28.875 101.161 28.875C100.786 28.875 100.469 28.9545 100.212 29.1136C99.9541 29.2689 99.8253 29.4773 99.8253 29.7386C99.8253 29.947 99.9086 30.1231 100.075 30.267C100.242 30.411 100.528 30.5265 100.933 30.6136L102.513 30.9318C103.361 31.1061 103.994 31.3864 104.411 31.7727C104.827 32.1591 105.036 32.6667 105.036 33.2955C105.036 33.8674 104.867 34.3693 104.53 34.8011C104.196 35.233 103.738 35.5701 103.155 35.8125C102.575 36.0511 101.907 36.1705 101.149 36.1705C99.9938 36.1705 99.0734 35.9299 98.3878 35.4489C97.706 34.964 97.3063 34.3049 97.1889 33.4716L99.5696 33.3466C99.6416 33.6989 99.8158 33.9678 100.092 34.1534C100.369 34.3352 100.723 34.4261 101.155 34.4261C101.579 34.4261 101.92 34.3447 102.178 34.1818C102.439 34.0152 102.571 33.8011 102.575 33.5398C102.571 33.3201 102.479 33.1402 102.297 33C102.115 32.8561 101.835 32.7462 101.456 32.6705L99.9446 32.3693C99.0923 32.1989 98.4579 31.9034 98.0412 31.483C97.6283 31.0625 97.4219 30.5265 97.4219 29.875C97.4219 29.3144 97.5734 28.8314 97.8764 28.4261C98.1832 28.0208 98.6132 27.7083 99.1662 27.4886C99.723 27.2689 100.375 27.1591 101.121 27.1591C102.223 27.1591 103.09 27.392 103.723 27.858C104.359 28.3239 104.731 28.9583 104.837 29.7614ZM111.202 27.2727V29.0909H105.946V27.2727H111.202ZM107.139 25.1818H109.56V33.3182C109.56 33.5417 109.594 33.7159 109.662 33.8409C109.73 33.9621 109.825 34.0473 109.946 34.0966C110.071 34.1458 110.215 34.1705 110.378 34.1705C110.491 34.1705 110.605 34.161 110.719 34.142C110.832 34.1193 110.92 34.1023 110.98 34.0909L111.361 35.892C111.24 35.9299 111.069 35.9735 110.849 36.0227C110.63 36.0758 110.363 36.108 110.048 36.1193C109.465 36.142 108.954 36.0644 108.514 35.8864C108.079 35.7083 107.74 35.4318 107.497 35.0568C107.255 34.6818 107.135 34.2083 107.139 33.6364V25.1818ZM118.375 32.2841V27.2727H120.795V36H118.472V34.4148H118.381C118.184 34.9261 117.856 35.3371 117.398 35.6477C116.943 35.9583 116.388 36.1136 115.733 36.1136C115.15 36.1136 114.636 35.9811 114.193 35.7159C113.75 35.4508 113.403 35.0739 113.153 34.5852C112.907 34.0966 112.782 33.5114 112.778 32.8295V27.2727H115.199V32.3977C115.203 32.9129 115.341 33.3201 115.614 33.6193C115.886 33.9186 116.252 34.0682 116.71 34.0682C117.002 34.0682 117.275 34.0019 117.528 33.8693C117.782 33.733 117.987 33.5322 118.142 33.267C118.301 33.0019 118.379 32.6742 118.375 32.2841ZM125.947 36.142C125.285 36.142 124.684 35.9716 124.146 35.6307C123.612 35.286 123.188 34.7803 122.874 34.1136C122.563 33.4432 122.408 32.6212 122.408 31.6477C122.408 30.6477 122.569 29.8163 122.891 29.1534C123.213 28.4867 123.641 27.9886 124.175 27.6591C124.713 27.3258 125.302 27.1591 125.942 27.1591C126.43 27.1591 126.838 27.2424 127.163 27.4091C127.493 27.572 127.758 27.7765 127.959 28.0227C128.163 28.2652 128.319 28.5038 128.425 28.7386H128.499V24.3636H130.913V36H128.527V34.6023H128.425C128.311 34.8447 128.15 35.0852 127.942 35.3239C127.737 35.5587 127.47 35.7538 127.141 35.9091C126.815 36.0644 126.417 36.142 125.947 36.142ZM126.714 34.2159C127.105 34.2159 127.434 34.1098 127.703 33.8977C127.976 33.6818 128.184 33.3807 128.328 32.9943C128.476 32.608 128.55 32.1553 128.55 31.6364C128.55 31.1174 128.478 30.6667 128.334 30.2841C128.19 29.9015 127.982 29.6061 127.709 29.3977C127.436 29.1894 127.105 29.0852 126.714 29.0852C126.317 29.0852 125.982 29.1932 125.709 29.4091C125.436 29.625 125.23 29.9242 125.089 30.3068C124.949 30.6894 124.879 31.1326 124.879 31.6364C124.879 32.1439 124.949 32.5928 125.089 32.983C125.233 33.3693 125.44 33.6723 125.709 33.892C125.982 34.108 126.317 34.2159 126.714 34.2159ZM136.847 36.1705C135.964 36.1705 135.201 35.983 134.557 35.608C133.917 35.2292 133.422 34.7027 133.074 34.0284C132.725 33.3504 132.551 32.5644 132.551 31.6705C132.551 30.7689 132.725 29.9811 133.074 29.3068C133.422 28.6288 133.917 28.1023 134.557 27.7273C135.201 27.3485 135.964 27.1591 136.847 27.1591C137.729 27.1591 138.491 27.3485 139.131 27.7273C139.775 28.1023 140.271 28.6288 140.619 29.3068C140.968 29.9811 141.142 30.7689 141.142 31.6705C141.142 32.5644 140.968 33.3504 140.619 34.0284C140.271 34.7027 139.775 35.2292 139.131 35.608C138.491 35.983 137.729 36.1705 136.847 36.1705ZM136.858 34.2955C137.259 34.2955 137.595 34.1818 137.864 33.9545C138.133 33.7235 138.335 33.4091 138.472 33.0114C138.612 32.6136 138.682 32.161 138.682 31.6534C138.682 31.1458 138.612 30.6932 138.472 30.2955C138.335 29.8977 138.133 29.5833 137.864 29.3523C137.595 29.1212 137.259 29.0057 136.858 29.0057C136.453 29.0057 136.112 29.1212 135.835 29.3523C135.563 29.5833 135.356 29.8977 135.216 30.2955C135.08 30.6932 135.011 31.1458 135.011 31.6534C135.011 32.161 135.08 32.6136 135.216 33.0114C135.356 33.4091 135.563 33.7235 135.835 33.9545C136.112 34.1818 136.453 34.2955 136.858 34.2955ZM149.977 29.7614L147.761 29.8977C147.723 29.7083 147.642 29.5379 147.517 29.3864C147.392 29.2311 147.227 29.108 147.023 29.017C146.822 28.9223 146.581 28.875 146.301 28.875C145.926 28.875 145.61 28.9545 145.352 29.1136C145.095 29.2689 144.966 29.4773 144.966 29.7386C144.966 29.947 145.049 30.1231 145.216 30.267C145.383 30.411 145.669 30.5265 146.074 30.6136L147.653 30.9318C148.502 31.1061 149.134 31.3864 149.551 31.7727C149.968 32.1591 150.176 32.6667 150.176 33.2955C150.176 33.8674 150.008 34.3693 149.67 34.8011C149.337 35.233 148.879 35.5701 148.295 35.8125C147.716 36.0511 147.047 36.1705 146.29 36.1705C145.134 36.1705 144.214 35.9299 143.528 35.4489C142.847 34.964 142.447 34.3049 142.33 33.4716L144.71 33.3466C144.782 33.6989 144.956 33.9678 145.233 34.1534C145.509 34.3352 145.864 34.4261 146.295 34.4261C146.72 34.4261 147.061 34.3447 147.318 34.1818C147.58 34.0152 147.712 33.8011 147.716 33.5398C147.712 33.3201 147.619 33.1402 147.438 33C147.256 32.8561 146.975 32.7462 146.597 32.6705L145.085 32.3693C144.233 32.1989 143.598 31.9034 143.182 31.483C142.769 31.0625 142.562 30.5265 142.562 29.875C142.562 29.3144 142.714 28.8314 143.017 28.4261C143.324 28.0208 143.754 27.7083 144.307 27.4886C144.864 27.2689 145.515 27.1591 146.261 27.1591C147.364 27.1591 148.231 27.392 148.864 27.858C149.5 28.3239 149.871 28.9583 149.977 29.7614Z" fill="white"/>
</svg>
