<svg width="177" height="60" viewBox="0 0 177 60" fill="none" xmlns="http://www.w3.org/2000/svg">
<path d="M0 20C0 8.9543 8.95431 0 20 0H157C168.046 0 177 8.95431 177 20V40C177 51.0457 168.046 60 157 60H20C8.95431 60 0 51.0457 0 40V20Z" fill="#222831"/>
<path d="M68.0121 24.3636L70.8246 33.2045H70.9325L73.7507 24.3636H76.478L72.4666 36H69.2962L65.2791 24.3636H68.0121ZM80.7919 36.1705C79.9093 36.1705 79.1461 35.983 78.5021 35.608C77.862 35.2292 77.3677 34.7027 77.0192 34.0284C76.6707 33.3504 76.4964 32.5644 76.4964 31.6705C76.4964 30.7689 76.6707 29.9811 77.0192 29.3068C77.3677 28.6288 77.862 28.1023 78.5021 27.7273C79.1461 27.3485 79.9093 27.1591 80.7919 27.1591C81.6745 27.1591 82.4358 27.3485 83.076 27.7273C83.7199 28.1023 84.2161 28.6288 84.5646 29.3068C84.9131 29.9811 85.0874 30.7689 85.0874 31.6705C85.0874 32.5644 84.9131 33.3504 84.5646 34.0284C84.2161 34.7027 83.7199 35.2292 83.076 35.608C82.4358 35.983 81.6745 36.1705 80.7919 36.1705ZM80.8033 34.2955C81.2048 34.2955 81.54 34.1818 81.8089 33.9545C82.0779 33.7235 82.2805 33.4091 82.4169 33.0114C82.5571 32.6136 82.6271 32.161 82.6271 31.6534C82.6271 31.1458 82.5571 30.6932 82.4169 30.2955C82.2805 29.8977 82.0779 29.5833 81.8089 29.3523C81.54 29.1212 81.2048 29.0057 80.8033 29.0057C80.398 29.0057 80.0571 29.1212 79.7805 29.3523C79.5078 29.5833 79.3014 29.8977 79.1612 30.2955C79.0249 30.6932 78.9567 31.1458 78.9567 31.6534C78.9567 32.161 79.0249 32.6136 79.1612 33.0114C79.3014 33.4091 79.5078 33.7235 79.7805 33.9545C80.0571 34.1818 80.398 34.2955 80.8033 34.2955ZM89.0817 24.3636V36H86.6612V24.3636H89.0817ZM95.6626 27.2727V29.0909H90.407V27.2727H95.6626ZM91.6001 25.1818H94.0206V33.3182C94.0206 33.5417 94.0547 33.7159 94.1229 33.8409C94.1911 33.9621 94.2857 34.0473 94.407 34.0966C94.532 34.1458 94.6759 34.1705 94.8388 34.1705C94.9524 34.1705 95.0661 34.161 95.1797 34.142C95.2933 34.1193 95.3804 34.1023 95.4411 34.0909L95.8217 35.892C95.7005 35.9299 95.5301 35.9735 95.3104 36.0227C95.0907 36.0758 94.8236 36.108 94.5092 36.1193C93.9259 36.142 93.4145 36.0644 92.9751 35.8864C92.5395 35.7083 92.2005 35.4318 91.9581 35.0568C91.7157 34.6818 91.5964 34.2083 91.6001 33.6364V25.1818ZM99.728 36.1648C99.1712 36.1648 98.675 36.0682 98.2393 35.875C97.8037 35.678 97.459 35.3883 97.2053 35.0057C96.9553 34.6193 96.8303 34.1383 96.8303 33.5625C96.8303 33.0777 96.9193 32.6705 97.0973 32.3409C97.2753 32.0114 97.5178 31.7462 97.8246 31.5455C98.1314 31.3447 98.4799 31.1932 98.87 31.0909C99.264 30.9886 99.6768 30.9167 100.109 30.875C100.616 30.822 101.025 30.7727 101.336 30.7273C101.647 30.678 101.872 30.6061 102.012 30.5114C102.152 30.4167 102.222 30.2765 102.222 30.0909V30.0568C102.222 29.697 102.109 29.4186 101.881 29.2216C101.658 29.0246 101.34 28.9261 100.927 28.9261C100.491 28.9261 100.145 29.0227 99.8871 29.2159C99.6295 29.4053 99.459 29.6439 99.3757 29.9318L97.1371 29.75C97.2507 29.2197 97.4742 28.7614 97.8075 28.375C98.1409 27.9848 98.5708 27.6856 99.0973 27.4773C99.6276 27.2652 100.241 27.1591 100.938 27.1591C101.423 27.1591 101.887 27.2159 102.33 27.3295C102.777 27.4432 103.173 27.6193 103.518 27.858C103.866 28.0966 104.141 28.4034 104.342 28.7784C104.542 29.1496 104.643 29.5947 104.643 30.1136V36H102.347V34.7898H102.279C102.139 35.0625 101.951 35.303 101.717 35.5114C101.482 35.7159 101.2 35.8769 100.87 35.9943C100.54 36.108 100.16 36.1648 99.728 36.1648ZM100.421 34.4943C100.777 34.4943 101.092 34.4242 101.364 34.2841C101.637 34.1402 101.851 33.947 102.006 33.7045C102.162 33.4621 102.239 33.1875 102.239 32.8807V31.9545C102.164 32.0038 102.059 32.0492 101.927 32.0909C101.798 32.1288 101.652 32.1648 101.489 32.1989C101.326 32.2292 101.164 32.2576 101.001 32.2841C100.838 32.3068 100.69 32.3277 100.558 32.3466C100.273 32.3883 100.025 32.4545 99.8132 32.5455C99.6011 32.6364 99.4363 32.7595 99.3189 32.9148C99.2015 33.0663 99.1428 33.2557 99.1428 33.483C99.1428 33.8125 99.2621 34.0644 99.5007 34.2386C99.7431 34.4091 100.05 34.4943 100.421 34.4943ZM106.521 36V27.2727H108.867V28.7955H108.958C109.117 28.2538 109.384 27.8447 109.759 27.5682C110.134 27.2879 110.566 27.1477 111.055 27.1477C111.176 27.1477 111.307 27.1553 111.447 27.1705C111.587 27.1856 111.71 27.2064 111.816 27.233V29.3807C111.702 29.3466 111.545 29.3163 111.344 29.2898C111.144 29.2633 110.96 29.25 110.793 29.25C110.437 29.25 110.119 29.3277 109.839 29.483C109.562 29.6345 109.343 29.8466 109.18 30.1193C109.021 30.392 108.941 30.7064 108.941 31.0625V36H106.521Z" fill="white"/>
</svg>
