<svg width="1280" height="314" viewBox="0 0 1280 314" fill="none" xmlns="http://www.w3.org/2000/svg">
<g filter="url(#filter0_i_74_72)">
<path d="M370.565 228.783L372.051 228.581C371.95 227.838 371.315 227.283 370.565 227.283V228.783ZM269.506 168.903C269.431 169.728 270.039 170.457 270.864 170.532C271.689 170.608 272.419 170 272.494 169.175L269.506 168.903ZM436 124.5L434.558 124.088C434.543 124.139 434.531 124.192 434.522 124.245L436 124.5ZM378 63.5L376.94 62.4386C376.916 62.4624 376.893 62.4869 376.871 62.5122L378 63.5ZM630.782 51.0183C630.082 50.5755 629.155 50.7841 628.713 51.4842C628.27 52.1844 628.478 53.1109 629.179 53.5537L630.782 51.0183ZM534.228 57.7862C534.939 58.2124 535.86 57.9821 536.286 57.2717C536.712 56.5613 536.482 55.6399 535.772 55.2137L534.228 57.7862ZM735.5 9.48266L735.122 10.9343L735.5 9.48266ZM534 48.8886L535.28 49.67L534 48.8886ZM-2.26126 277.292C75.4787 323.081 169.967 318.583 244.358 299.05C281.574 289.277 313.848 275.721 336.596 262.728C347.963 256.235 357.002 249.855 363.096 244.122C366.141 241.258 368.496 238.513 370.032 235.956C371.556 233.419 372.368 230.908 372.051 228.581L369.078 228.985C369.264 230.352 368.816 232.154 367.46 234.411C366.116 236.648 363.972 239.179 361.041 241.937C355.182 247.448 346.363 253.694 335.108 260.123C312.611 272.972 280.586 286.435 243.596 296.148C169.575 315.585 76.0213 319.919 -0.738739 274.707L-2.26126 277.292ZM272.494 169.175C272.731 166.568 273.469 164.537 274.587 162.948C275.704 161.359 277.26 160.129 279.26 159.21C283.317 157.343 289.09 156.803 296.256 157.164C303.385 157.523 311.681 158.758 320.67 160.273C329.627 161.784 339.281 163.576 348.999 165.014C368.404 167.885 388.458 169.415 404.685 164.447C412.835 161.953 420.06 157.808 425.746 151.348C431.432 144.889 435.499 136.205 437.478 124.755L434.522 124.245C432.619 135.256 428.747 143.399 423.494 149.366C418.243 155.333 411.532 159.214 403.807 161.579C388.283 166.331 368.828 164.915 349.438 162.046C339.758 160.614 330.193 158.837 321.169 157.315C312.175 155.799 303.727 154.536 296.407 154.168C289.125 153.801 282.746 154.304 278.006 156.484C275.608 157.587 273.604 159.131 272.133 161.222C270.663 163.312 269.783 165.866 269.506 168.903L272.494 169.175ZM379.06 64.5614C385.581 58.0494 395.726 57.0545 408.689 59.6973C421.601 62.3298 436.823 68.4749 452.982 75.5707C469.081 82.6406 486.1 90.6498 502.411 96.8704C518.713 103.088 534.511 107.602 548.228 107.602V104.602C535.081 104.602 519.708 100.256 503.48 94.0673C487.261 87.8819 470.39 79.939 454.188 72.8239C438.045 65.7349 422.553 59.4622 409.288 56.7578C396.074 54.0637 384.577 54.8126 376.94 62.4386L379.06 64.5614ZM548.228 107.602C574.546 107.602 598.728 96.1465 614.599 83.6208C622.528 77.3632 628.483 70.7601 631.589 65.0688C633.136 62.233 634.046 59.4973 634.026 57.0742C634.006 54.5636 632.977 52.4062 630.782 51.0183L629.179 53.5537C630.409 54.3321 631.013 55.4812 631.026 57.0983C631.04 58.8029 630.383 61.0163 628.955 63.6319C626.112 68.8434 620.486 75.1526 612.74 81.2658C597.262 93.4816 573.716 104.602 548.228 104.602V107.602ZM735.122 10.9343C787.589 24.5915 831.55 49.4753 872.14 78.0801C892.438 92.3848 911.88 107.611 931.128 122.828C950.366 138.037 969.416 153.244 988.884 167.468C1027.83 195.92 1068.54 220.52 1116.13 233.544C1163.74 246.574 1218.13 247.991 1284.39 230.232L1283.61 227.334C1217.82 244.968 1163.97 243.529 1116.92 230.651C1069.84 217.766 1029.47 193.407 990.654 165.046C971.243 150.863 952.246 135.699 932.988 120.474C913.741 105.257 894.241 89.9851 873.868 75.6279C833.116 46.9087 788.822 21.8124 735.878 8.03104L735.122 10.9343ZM370.565 227.283H369V230.283H370.565V227.283ZM535.772 55.2137C534.69 54.5646 534.281 53.8505 534.195 53.119C534.099 52.3033 534.369 51.1636 535.28 49.67L532.72 48.1073C531.634 49.8866 531.009 51.7161 531.216 53.4696C531.432 55.3073 532.522 56.7625 534.228 57.7862L535.772 55.2137ZM535.28 49.67C536.681 47.3747 539.368 44.6205 543.307 41.5936C547.223 38.5841 552.289 35.371 558.347 32.1352C570.462 25.6645 586.463 19.1452 604.988 13.9992C642.048 3.70429 689.063 -1.05518 735.122 10.9343L735.878 8.03104C689.172 -4.12664 641.601 0.714812 604.185 11.1087C585.471 16.3071 569.262 22.904 556.934 29.4891C550.77 32.7812 545.557 36.0808 541.479 39.2148C537.424 42.3315 534.401 45.3516 532.72 48.1073L535.28 49.67ZM376.871 62.5122C376.044 63.458 375.525 64.4306 375.343 65.4238C375.158 66.4359 375.344 67.3554 375.738 68.1296C376.484 69.5986 377.934 70.4892 378.943 70.8927L380.057 68.1073C379.399 67.8441 378.699 67.3347 378.412 66.7704C378.289 66.5279 378.238 66.2725 378.294 65.9637C378.354 65.6361 378.556 65.142 379.129 64.4878L376.871 62.5122ZM436 124.5C437.442 124.912 437.442 124.912 437.443 124.911C437.443 124.911 437.443 124.91 437.443 124.91C437.443 124.909 437.443 124.908 437.444 124.907C437.444 124.905 437.445 124.903 437.445 124.901C437.447 124.896 437.448 124.89 437.45 124.884C437.454 124.871 437.458 124.855 437.463 124.835C437.473 124.796 437.486 124.744 437.501 124.68C437.53 124.552 437.566 124.375 437.599 124.16C437.665 123.736 437.724 123.141 437.685 122.474C437.608 121.16 437.12 119.322 435.272 118.214L433.728 120.786C434.38 121.178 434.642 121.84 434.69 122.651C434.713 123.047 434.678 123.42 434.635 123.699C434.614 123.836 434.591 123.944 434.576 124.014C434.568 124.048 434.562 124.072 434.558 124.085C434.557 124.092 434.556 124.095 434.555 124.096C434.555 124.096 434.556 124.096 434.556 124.094C434.556 124.094 434.556 124.093 434.557 124.092C434.557 124.091 434.557 124.091 434.557 124.09C434.557 124.09 434.557 124.089 434.557 124.089C434.558 124.088 434.558 124.088 436 124.5Z" fill="#DD4A48"/>
</g>
<defs>
<filter id="filter0_i_74_72" x="-2.26123" y="0.859619" width="1286.65" height="316.246" filterUnits="userSpaceOnUse" color-interpolation-filters="sRGB">
<feFlood flood-opacity="0" result="BackgroundImageFix"/>
<feBlend mode="normal" in="SourceGraphic" in2="BackgroundImageFix" result="shape"/>
<feColorMatrix in="SourceAlpha" type="matrix" values="0 0 0 0 0 0 0 0 0 0 0 0 0 0 0 0 0 0 127 0" result="hardAlpha"/>
<feOffset dy="4"/>
<feGaussianBlur stdDeviation="2"/>
<feComposite in2="hardAlpha" operator="arithmetic" k2="-1" k3="1"/>
<feColorMatrix type="matrix" values="0 0 0 0 0 0 0 0 0 0 0 0 0 0 0 0 0 0 0.25 0"/>
<feBlend mode="normal" in2="shape" result="effect1_innerShadow_74_72"/>
</filter>
</defs>
</svg>
