<svg width="360" height="41" viewBox="0 0 360 41" fill="none" xmlns="http://www.w3.org/2000/svg">
<rect y="0.630615" width="360" height="40" rx="6" fill="#333333"/>
<path d="M127.869 20.8587C127.87 20.1772 127.812 19.497 127.696 18.8254H118.2V22.6766H123.639C123.527 23.2917 123.292 23.8781 122.946 24.4003C122.601 24.9226 122.152 25.3699 121.628 25.7154V28.2152H124.874C126.774 26.4751 127.869 23.9016 127.869 20.8587Z" fill="#4285F4"/>
<path d="M118.2 30.6306C120.917 30.6306 123.205 29.7446 124.874 28.2169L121.628 25.717C120.724 26.3253 119.561 26.6725 118.2 26.6725C115.574 26.6725 113.344 24.9142 112.547 22.5449H109.203V25.1212C110.041 26.7773 111.327 28.1695 112.915 29.1424C114.504 30.1153 116.333 30.6305 118.2 30.6306Z" fill="#34A853"/>
<path d="M112.547 22.5446C112.126 21.3031 112.126 19.9586 112.547 18.717V16.1407H109.203C108.498 17.5339 108.131 19.0716 108.131 20.6308C108.131 22.19 108.498 23.7277 109.203 25.1209L112.547 22.5446Z" fill="#FBBC04"/>
<path d="M118.2 14.5894C119.636 14.5661 121.023 15.1049 122.063 16.0893L124.936 13.2353C123.114 11.5355 120.7 10.6023 118.2 10.6313C116.333 10.6314 114.504 11.1466 112.915 12.1195C111.327 13.0924 110.041 14.4846 109.203 16.1407L112.547 18.717C113.344 16.3477 115.574 14.5894 118.2 14.5894Z" fill="#EA4335"/>
<path d="M140.424 16.0349C138.028 16.0349 136.528 17.7224 136.528 20.406C136.528 23.0896 138.028 24.7712 140.424 24.7712C142.821 24.7712 144.321 23.0896 144.321 20.406C144.321 17.7224 142.821 16.0349 140.424 16.0349ZM140.424 17.0076C142.153 17.0076 143.237 18.3201 143.237 20.406C143.237 22.4861 142.153 23.7986 140.424 23.7986C138.696 23.7986 137.612 22.4861 137.612 20.406C137.612 18.3201 138.696 17.0076 140.424 17.0076ZM145.775 24.6306H146.795V20.8337C146.795 19.9724 147.31 19.4041 148.101 19.4041C148.347 19.4041 148.564 19.4333 148.646 19.4626V18.4724C148.564 18.4607 148.412 18.4314 148.236 18.4314C147.521 18.4314 146.959 18.8591 146.759 19.533H146.736V18.5369H145.775V24.6306ZM152.434 20.2185C152.434 21.0974 152.99 21.6306 154.139 21.906L155.105 22.1404C155.803 22.3103 156.043 22.5623 156.043 23.0017C156.043 23.5525 155.533 23.9041 154.707 23.9041C153.881 23.9041 153.412 23.5701 153.289 22.8728H152.27C152.387 24.0154 153.277 24.7361 154.707 24.7361C156.066 24.7361 157.068 23.9861 157.068 22.9255C157.068 22.0525 156.623 21.572 155.393 21.2732L154.426 21.0388C153.746 20.8748 153.436 20.5876 153.436 20.1658C153.436 19.6326 153.928 19.2634 154.672 19.2634C155.422 19.2634 155.891 19.656 155.967 20.2947H156.939C156.898 19.2166 156.008 18.4314 154.672 18.4314C153.354 18.4314 152.434 19.1755 152.434 20.2185ZM158.482 24.6306H159.501V18.5369H158.482V24.6306ZM158.991 17.4529C159.349 17.4529 159.63 17.1658 159.63 16.8142C159.63 16.4568 159.349 16.1755 158.991 16.1755C158.64 16.1755 158.353 16.4568 158.353 16.8142C158.353 17.1658 158.64 17.4529 158.991 17.4529ZM163.657 23.781C162.608 23.781 161.922 22.9255 161.922 21.5603C161.922 20.1951 162.608 19.3279 163.657 19.3279C164.717 19.3279 165.426 20.2185 165.426 21.5603C165.426 22.9021 164.717 23.781 163.657 23.781ZM163.692 26.9275C165.373 26.9275 166.446 25.9607 166.446 24.5076V18.5369H165.473V19.5623H165.455C165.051 18.8533 164.336 18.4314 163.475 18.4314C161.899 18.4314 160.879 19.6501 160.879 21.5603C160.879 23.4529 161.899 24.6775 163.452 24.6775C164.307 24.6775 165.028 24.2439 165.403 23.5818H165.426V24.5427C165.426 25.4509 164.787 26.0603 163.733 26.0603C162.971 26.0603 162.368 25.6912 162.168 25.1345H161.12C161.289 26.1716 162.35 26.9275 163.692 26.9275ZM168.076 24.6306H169.095V21.0447C169.095 20.0134 169.722 19.3337 170.683 19.3337C171.621 19.3337 172.084 19.8728 172.084 20.8572V24.6306H173.103V20.6755C173.103 19.2927 172.33 18.4314 170.994 18.4314C170.05 18.4314 169.4 18.8533 169.06 19.5095H169.037V18.5369H168.076V24.6306ZM177.518 24.6306H178.537V18.5369H177.518V24.6306ZM178.027 17.4529C178.385 17.4529 178.666 17.1658 178.666 16.8142C178.666 16.4568 178.385 16.1755 178.027 16.1755C177.676 16.1755 177.389 16.4568 177.389 16.8142C177.389 17.1658 177.676 17.4529 178.027 17.4529ZM180.214 24.6306H181.234V21.0447C181.234 20.0134 181.861 19.3337 182.821 19.3337C183.759 19.3337 184.222 19.8728 184.222 20.8572V24.6306H185.241V20.6755C185.241 19.2927 184.468 18.4314 183.132 18.4314C182.189 18.4314 181.538 18.8533 181.198 19.5095H181.175V18.5369H180.214V24.6306ZM197.355 18.5369H196.347L195.129 23.4939H195.105L193.722 18.5369H192.738L191.361 23.4939H191.337L190.119 18.5369H189.105L190.81 24.6306H191.847L193.218 19.9138H193.242L194.619 24.6306H195.656L197.355 18.5369ZM198.546 24.6306H199.565V18.5369H198.546V24.6306ZM199.055 17.4529C199.413 17.4529 199.694 17.1658 199.694 16.8142C199.694 16.4568 199.413 16.1755 199.055 16.1755C198.704 16.1755 198.417 16.4568 198.417 16.8142C198.417 17.1658 198.704 17.4529 199.055 17.4529ZM201.57 17.0662V18.5369H200.662V19.3748H201.57V23.0486C201.57 24.2205 202.004 24.6775 203.123 24.6775C203.363 24.6775 203.645 24.6599 203.768 24.6306V23.7751C203.697 23.7869 203.463 23.8044 203.346 23.8044C202.824 23.8044 202.59 23.5525 202.59 22.9958V19.3748H203.773V18.5369H202.59V17.0662H201.57ZM205.216 24.6306H206.236V21.0798C206.236 20.0251 206.862 19.3337 207.876 19.3337C208.831 19.3337 209.318 19.9138 209.318 20.8806V24.6306H210.337V20.6931C210.337 19.3337 209.529 18.4314 208.193 18.4314C207.267 18.4314 206.599 18.8298 206.259 19.5095H206.236V16.1755H205.216V24.6306ZM221.982 21.1326V20.3298H218.543V21.2556H220.927V21.408C220.927 22.8259 219.896 23.7986 218.396 23.7986C216.673 23.7986 215.607 22.4802 215.607 20.3533C215.607 18.2615 216.656 17.0076 218.396 17.0076C219.586 17.0076 220.47 17.658 220.822 18.8005H221.929C221.613 17.1189 220.224 16.0349 218.396 16.0349C216.029 16.0349 214.523 17.7166 214.523 20.3591C214.523 23.0486 216.035 24.7712 218.396 24.7712C220.652 24.7712 221.982 23.4177 221.982 21.1326ZM226.003 24.7361C227.684 24.7361 228.821 23.5232 228.821 21.5837C228.821 19.6384 227.684 18.4314 226.003 18.4314C224.315 18.4314 223.179 19.6384 223.179 21.5837C223.179 23.5232 224.315 24.7361 226.003 24.7361ZM226.003 23.8396C224.925 23.8396 224.216 23.0193 224.216 21.5837C224.216 20.1482 224.925 19.3279 226.003 19.3279C227.081 19.3279 227.784 20.1482 227.784 21.5837C227.784 23.0193 227.081 23.8396 226.003 23.8396ZM232.678 24.7361C234.359 24.7361 235.496 23.5232 235.496 21.5837C235.496 19.6384 234.359 18.4314 232.678 18.4314C230.99 18.4314 229.854 19.6384 229.854 21.5837C229.854 23.5232 230.99 24.7361 232.678 24.7361ZM232.678 23.8396C231.6 23.8396 230.891 23.0193 230.891 21.5837C230.891 20.1482 231.6 19.3279 232.678 19.3279C233.756 19.3279 234.459 20.1482 234.459 21.5837C234.459 23.0193 233.756 23.8396 232.678 23.8396ZM239.306 23.781C238.257 23.781 237.571 22.9255 237.571 21.5603C237.571 20.1951 238.257 19.3279 239.306 19.3279C240.366 19.3279 241.075 20.2185 241.075 21.5603C241.075 22.9021 240.366 23.781 239.306 23.781ZM239.341 26.9275C241.023 26.9275 242.095 25.9607 242.095 24.5076V18.5369H241.122V19.5623H241.105C240.7 18.8533 239.986 18.4314 239.124 18.4314C237.548 18.4314 236.529 19.6501 236.529 21.5603C236.529 23.4529 237.548 24.6775 239.101 24.6775C239.956 24.6775 240.677 24.2439 241.052 23.5818H241.075V24.5427C241.075 25.4509 240.437 26.0603 239.382 26.0603C238.62 26.0603 238.017 25.6912 237.818 25.1345H236.769C236.939 26.1716 237.999 26.9275 239.341 26.9275ZM243.778 24.6306H244.797V16.1755H243.778V24.6306ZM248.918 19.3162C249.879 19.3162 250.517 20.0427 250.541 21.0623H247.23C247.295 20.0486 247.963 19.3162 248.918 19.3162ZM250.517 22.8845C250.347 23.4587 249.779 23.8513 249.005 23.8513C247.91 23.8513 247.224 23.0837 247.224 21.9177V21.8591H251.595V21.4724C251.595 19.6267 250.582 18.4314 248.935 18.4314C247.254 18.4314 246.175 19.7146 246.175 21.6072C246.175 23.5232 247.236 24.7361 248.982 24.7361C250.312 24.7361 251.343 23.9509 251.519 22.8845H250.517Z" fill="white"/>
</svg>
