<svg xmlns="http://www.w3.org/2000/svg" width="375" viewBox="0 0 375 375" height="375" version="1.0"><g fill="#F05454"><g><g><path d="M 60.78125 -73.59375 C 62.25 -73.59375 63.421875 -73.117188 64.296875 -72.171875 C 65.171875 -71.234375 65.609375 -70.03125 65.609375 -68.5625 L 65.609375 -28.234375 C 65.609375 -22.710938 64.382812 -17.742188 61.9375 -13.328125 C 59.488281 -8.921875 56.113281 -5.472656 51.8125 -2.984375 C 47.507812 -0.503906 42.660156 0.734375 37.265625 0.734375 C 31.804688 0.734375 26.90625 -0.503906 22.5625 -2.984375 C 18.226562 -5.472656 14.835938 -8.921875 12.390625 -13.328125 C 9.941406 -17.742188 8.71875 -22.710938 8.71875 -28.234375 L 8.71875 -68.5625 C 8.71875 -70.03125 9.207031 -71.234375 10.1875 -72.171875 C 11.164062 -73.117188 12.425781 -73.59375 13.96875 -73.59375 C 15.289062 -73.59375 16.457031 -73.101562 17.46875 -72.125 C 18.488281 -71.144531 19 -69.957031 19 -68.5625 L 19 -28.234375 C 19 -24.597656 19.835938 -21.328125 21.515625 -18.421875 C 23.203125 -15.515625 25.441406 -13.253906 28.234375 -11.640625 C 31.035156 -10.035156 34.046875 -9.234375 37.265625 -9.234375 C 40.628906 -9.234375 43.742188 -10.035156 46.609375 -11.640625 C 49.484375 -13.253906 51.773438 -15.515625 53.484375 -18.421875 C 55.203125 -21.328125 56.0625 -24.597656 56.0625 -28.234375 L 56.0625 -68.5625 C 56.0625 -70.03125 56.476562 -71.234375 57.3125 -72.171875 C 58.15625 -73.117188 59.3125 -73.59375 60.78125 -73.59375 Z M 60.78125 -73.59375" transform="translate(239.267 226.466)"/></g></g></g><g fill="#222831"><g><g><path d="M 56.375 -73.484375 C 57.84375 -73.484375 59.050781 -73.046875 60 -72.171875 C 60.945312 -71.296875 61.421875 -70.125 61.421875 -68.65625 C 61.421875 -67.1875 60.945312 -66.03125 60 -65.1875 C 59.050781 -64.351562 57.84375 -63.9375 56.375 -63.9375 L 37.6875 -63.9375 L 37.6875 -5.046875 C 37.6875 -3.640625 37.175781 -2.445312 36.15625 -1.46875 C 35.144531 -0.488281 33.867188 0 32.328125 0 C 30.796875 0 29.519531 -0.488281 28.5 -1.46875 C 27.488281 -2.445312 26.984375 -3.640625 26.984375 -5.046875 L 26.984375 -63.9375 L 8.40625 -63.9375 C 6.925781 -63.9375 5.710938 -64.375 4.765625 -65.25 C 3.828125 -66.125 3.359375 -67.296875 3.359375 -68.765625 C 3.359375 -70.160156 3.828125 -71.296875 4.765625 -72.171875 C 5.710938 -73.046875 6.925781 -73.484375 8.40625 -73.484375 Z M 56.375 -73.484375" transform="translate(79.622 226.466)"/></g></g></g><g fill="#30475E"><g><g><path d="M 59.53125 -27.5 C 59.53125 -22.039062 58.300781 -17.140625 55.84375 -12.796875 C 53.394531 -8.460938 50.050781 -5.070312 45.8125 -2.625 C 41.582031 -0.175781 36.914062 1.046875 31.8125 1.046875 C 26.695312 1.046875 22.019531 -0.175781 17.78125 -2.625 C 13.550781 -5.070312 10.210938 -8.460938 7.765625 -12.796875 C 5.316406 -17.140625 4.09375 -22.039062 4.09375 -27.5 C 4.09375 -32.957031 5.316406 -37.890625 7.765625 -42.296875 C 10.210938 -46.710938 13.550781 -50.144531 17.78125 -52.59375 C 22.019531 -55.039062 26.695312 -56.265625 31.8125 -56.265625 C 36.914062 -56.265625 41.582031 -55.039062 45.8125 -52.59375 C 50.050781 -50.144531 53.394531 -46.710938 55.84375 -42.296875 C 58.300781 -37.890625 59.53125 -32.957031 59.53125 -27.5 Z M 49.546875 -27.5 C 49.546875 -31.28125 48.757812 -34.65625 47.1875 -37.625 C 45.613281 -40.601562 43.476562 -42.914062 40.78125 -44.5625 C 38.09375 -46.207031 35.101562 -47.03125 31.8125 -47.03125 C 28.519531 -47.03125 25.523438 -46.207031 22.828125 -44.5625 C 20.140625 -42.914062 18.003906 -40.601562 16.421875 -37.625 C 14.847656 -34.65625 14.0625 -31.28125 14.0625 -27.5 C 14.0625 -23.789062 14.847656 -20.46875 16.421875 -17.53125 C 18.003906 -14.59375 20.140625 -12.300781 22.828125 -10.65625 C 25.523438 -9.007812 28.519531 -8.1875 31.8125 -8.1875 C 35.101562 -8.1875 38.09375 -9.007812 40.78125 -10.65625 C 43.476562 -12.300781 45.613281 -14.59375 47.1875 -17.53125 C 48.757812 -20.46875 49.546875 -23.789062 49.546875 -27.5 Z M 49.546875 -27.5" transform="translate(160.236 226.466)"/></g></g></g><path fill="#30475E" d="M 192.808594 172.183594 C 178.285156 172.183594 166.515625 183.957031 166.515625 198.476562 C 166.515625 213 178.285156 224.769531 192.808594 224.769531 C 207.328125 224.769531 219.101562 213 219.101562 198.476562 C 219.101562 183.957031 207.328125 172.183594 192.808594 172.183594"/><path fill="#F05454" d="M 276.339844 193.460938 C 264.996094 193.460938 255.800781 200.082031 255.800781 208.25 C 255.800781 216.417969 264.996094 223.039062 276.339844 223.039062 C 287.6875 223.039062 296.882812 216.417969 296.882812 208.25 C 296.882812 200.082031 287.6875 193.460938 276.339844 193.460938"/><path stroke-linecap="round" transform="matrix(17.35731 0 0 17.59193 249.473 202.257)" fill="none" d="M 0.500032 0.0000287963 L 2.624272 0.0000287963" stroke="#F05454"/></svg>